<?xml version="1.0" encoding="UTF-8" standalone="no"?>
<svg width="439px" height="150px" viewBox="0 0 439 150" version="1.1" xmlns="http://www.w3.org/2000/svg" xmlns:xlink="http://www.w3.org/1999/xlink" xmlns:sketch="http://www.bohemiancoding.com/sketch/ns">
    <!-- Generator: Sketch 3.0.4 (8053) - http://www.bohemiancoding.com/sketch -->
    <title>mustache_04_blue</title>
    <desc>Created with Sketch.</desc>
    <defs></defs>
    <g id="Page-1" stroke="none" stroke-width="1" fill="none" fill-rule="evenodd" sketch:type="MSPage">
        <g id="mustache_04_blue" sketch:type="MSArtboardGroup" fill="#3DB4E7">
            <path d="M219.500004,35.5476876 C245.208118,1.35487144 282.52178,0.173293131 297.775678,1.35602772 C369.899398,6.94825192 389.654954,80.3756834 406.255663,80.3756826 C422.856372,80.3756817 429.736771,51.0908571 433.885523,51.0908579 C438.034276,51.0908586 458.481725,148.999982 346.773232,149.000001 C271.993178,149.000014 221.078126,105.320022 219.5,89.7397778 C217.921874,105.320022 167.006822,149.000014 92.2267684,149.000001 C-19.4817246,148.999982 0.965724205,51.0908586 5.11447661,51.0908579 C9.26322902,51.0908571 16.1436276,80.3756817 32.744337,80.3756826 C49.3450465,80.3756834 69.1006025,6.94825192 141.224322,1.35602772 C156.478221,0.173293062 193.791887,1.35487158 219.5,35.5476935 Z" id="Path-1" sketch:type="MSShapeGroup"></path>
        </g>
    </g>
</svg>