<?xml version="1.0" encoding="UTF-8" standalone="no"?>
<svg width="491px" height="105px" viewBox="0 0 491 105" version="1.1" xmlns="http://www.w3.org/2000/svg" xmlns:xlink="http://www.w3.org/1999/xlink" xmlns:sketch="http://www.bohemiancoding.com/sketch/ns">
    <!-- Generator: Sketch 3.0.4 (8053) - http://www.bohemiancoding.com/sketch -->
    <title>mustache_03</title>
    <desc>Created with Sketch.</desc>
    <defs></defs>
    <g id="Page-1" stroke="none" stroke-width="1" fill="none" fill-rule="evenodd" sketch:type="MSPage">
        <g id="mustache_03" sketch:type="MSArtboardGroup" stroke="#000000" fill="#000000">
            <g sketch:type="MSLayerGroup" transform="translate(1.000000, 1.000000)" id="Shape">
                <path d="M294.864,76.623 C410.3,166.247 489.466,1.776 489.466,1.776 C489.466,1.776 463.27,69.139 380.938,35.457 C298.606,1.776 288.626,13.315 261.651,28.44 C261.651,28.44 258.063,31.091 247.46,37.638 C247.46,37.638 237.48,30.154 228.748,26.411 C199.359,13.813 191.325,0.215 108.993,33.895 C26.662,67.578 0.466,0.216 0.466,0.216 C0.466,0.216 78.154,162.747 195.068,75.063 C195.067,75.062 244.655,37.641 294.864,76.623 L294.864,76.623 Z" sketch:type="MSShapeGroup"></path>
            </g>
        </g>
    </g>
</svg>